<svg xmlns="http://www.w3.org/2000/svg" viewBox="0 0 300 300" width="600" height="600" role="img" aria-label="Restaurante Gabi · Zafra · desde 2007">
<title>Restaurante Gabi</title>
<circle cx="150" cy="150" r="148" fill="#FBF7EC"/>
<defs><clipPath id="logo-cuenco"><path d="M70 102H124C124 102 125.5 137 111.5 150.5C104.5 157.5 89.5 157.5 82.5 150.5C68.5 137 70 102 70 102Z"/></clipPath></defs>
<g fill="none" stroke="#1E2A44" stroke-linecap="round" stroke-linejoin="round">
<path d="M150 4A146 146 0 1 1 149.99 4Z" stroke-width="2.4"/>
<path d="M150 17A133 133 0 1 1 149.99 17Z" stroke-width="1" opacity=".5"/>
<path d="M127.68 95.69A76 76 0 1 1 127.68 232.31" stroke-width="2.2"/>
<path d="M131.50 112.90A59 59 0 1 1 152.79 222.43" stroke-width="1.6"/>
</g>
<g clip-path="url(#logo-cuenco)"><rect x="60" y="124" width="80" height="60" fill="#C89248"/></g>
<g fill="none" stroke="#1E2A44" stroke-linecap="round" stroke-linejoin="round" stroke-width="2.2">
<path d="M70 102H124C124 102 125.5 137 111.5 150.5C104.5 157.5 89.5 157.5 82.5 150.5C68.5 137 70 102 70 102Z"/>
<path d="M97 156V212"/>
<path d="M75 216.5Q97 208.5 119 216.5"/>
</g>
<g fill="#1E2A44">
<path d="M119.1 174.69Q117.41 175.61 115.36 174.92Q113.31 174.24 111.67 172.44Q111.37 172.09 110.74 171.17Q110.11 170.25 109.49 169.16Q108.87 168.08 108.55 167.28Q108.23 166.48 108.4 166.33Q108.57 165.6 109.44 165.37Q110.32 165.13 111.23 165.24Q112.15 165.36 112.32 165.72Q112.57 166.14 112.82 166.6Q113.07 167.05 113.4 167.43Q113.74 167.8 114.03 168.09Q114.86 169.08 115.74 169.4Q116.62 169.71 117.02 169.34Q118 168.38 118.41 167.2Q118.81 166.02 119.36 163.12Q119.77 160.68 120.06 158.9Q120.36 157.13 120.75 155.59Q120.85 154.81 121.07 154.23Q121.29 153.66 121.51 153.37L121.89 153.33Q120.6 154.39 119.76 155.39Q118.92 156.4 117.35 157.3Q117.02 157.79 115.54 158.07Q114.06 158.35 112.61 158.08Q111.66 157.68 111.05 157.2Q110.45 156.73 110.01 156.08Q109.58 155.42 109.08 154.51Q108.52 153.61 108.57 151.42Q108.62 149.22 109.18 146.96Q109.75 145.27 110.98 143.25Q112.22 141.23 113.69 139.54Q115.16 137.84 116.44 137.3Q116.92 136.98 118.15 136.47Q119.37 135.97 120.56 136.15Q121.65 136.14 122.27 136.42Q122.88 136.7 124.28 137.62Q125.21 138.35 126.58 139.5Q127.95 140.65 128.37 141.5Q128.93 142.4 128.82 143.55Q128.7 144.69 128.17 145.59Q127.69 146.49 127.16 147.39Q126.63 148.3 126.49 149.8Q126.41 151.74 125.81 154.23Q125.21 156.72 124.95 158.82L124.42 162.88Q123.5 168.48 121.89 171.16Q120.28 173.84 119.1 174.69ZM115.08 153Q116.35 152.78 117.24 152.45Q118.13 152.11 118.86 151.22Q119.59 150.32 120.47 148.54Q121.36 146.88 121.65 145.55Q121.94 144.23 121.61 142.66Q121.43 141.65 120.88 141.39Q120.33 141.14 119.52 141.37Q118.34 141.71 117.48 142.62Q116.63 143.53 115.56 145.33Q114.76 146.72 114.35 148.58Q113.94 150.56 114.18 151.69Q114.42 152.83 115.08 153Z M134.78 158.51Q134.46 158.04 133.54 157.63Q132.62 157.23 132.59 156.98Q132.56 156.72 132.21 156.22Q131.86 155.71 131.57 155.49Q131.21 155.15 131.53 153.59Q131.86 152.04 132.61 149.75Q133.36 147.47 134.29 145.1Q134.74 144.53 135.15 143.64Q135.55 142.75 135.78 142.47Q135.75 142.21 135.91 141.97Q136.07 141.72 136.33 141.69L136.71 140.61Q136.81 140.34 137.37 139.5Q137.93 138.66 138.78 137.62Q139.63 136.58 140.51 135.62Q141.38 134.67 141.99 134.22Q143.21 133.17 144.65 133.06Q146.09 132.95 147.2 133.65Q147.42 133.81 148.15 134.3Q148.89 134.79 149.84 135.39Q150.78 135.98 151.48 136.47L154.09 138.28L153.37 141.59Q152.89 144.23 153.52 146.09Q154.15 147.95 155.12 149.25Q155.52 149.91 156.11 150.22Q156.69 150.54 157.6 150.55Q158.11 150.56 158.6 150.82Q159.08 151.08 159.17 151.78Q159.35 153.31 158.9 154.04Q158.44 154.77 157.82 154.98Q155.75 155.49 153.76 155.02Q151.77 154.56 149.89 151.82Q149.59 151.47 149.04 150.48Q148.5 149.48 148.4 149.17Q148.18 149.52 147.83 150.05Q147.48 150.57 147.14 151Q143.19 156.13 140.14 157.89Q137.08 159.65 134.78 158.51ZM137.63 152.81Q138.08 152.82 138.97 152.17Q139.85 151.51 141.29 150.04Q143.22 147.94 144.47 146.56Q145.72 145.18 146.82 143.11L147.93 140.65Q147.12 139.27 146.56 138.89Q145.99 138.5 145.49 138.57Q144.66 138.67 143.65 139.86Q142.63 141.04 141.45 143.22Q140.26 145.4 138.85 148.6Q138.2 150.1 137.91 151.46Q137.63 152.81 137.63 152.81Z M169.9 155.17Q168.61 155.2 167.82 154.75Q167.02 154.3 166.54 153.52Q165.96 153.01 165.82 152.7Q165.69 152.4 165.72 152.14Q166.04 152.1 166.29 152.03Q166.54 151.97 166.58 151.77Q166.56 151.58 166.77 151.49Q166.99 151.4 167.25 151.43Q168.46 151.35 170.1 150.24Q171.74 149.14 173.64 147.26Q175.53 145.39 177.4 143.22Q178.78 140.86 179.32 139.76Q179.87 138.66 179.83 138.12Q179.8 137.58 179.41 137.04Q179.09 136.57 178.14 136.68Q177.19 136.8 175.37 138.31Q172.85 140.36 171.38 142.03Q169.91 143.69 168.74 145.7Q168.31 146.4 167.79 147.2Q167.26 148 166.92 148.56Q166.58 149.13 166.58 149.13Q166.61 149.38 165.93 149.85Q165.24 150.33 164.73 150.39Q164.46 150.29 164.01 149.99Q163.55 149.69 163.36 149.14Q162.73 148.76 162.31 148.46Q161.88 148.16 161.78 147.33Q161.72 146.82 161.78 146.04Q161.85 145.26 162.02 144.02Q162.17 142.3 162.41 140.44Q162.64 138.59 162.9 137.23Q163.16 135.88 163.32 135.73Q163.32 135.73 163.51 135.13Q163.69 134.52 163.6 133.76Q163.63 132.98 163.84 132.38Q164.06 131.77 164.03 131.52Q164.26 131.3 164.6 129.9Q164.95 128.5 165.45 126.25Q165.42 126.06 165.74 124.96Q166.05 123.85 166.51 122.35Q166.97 120.84 167.45 119.2Q167.93 117.56 168.22 116.3Q168.85 115.13 169.26 113.95Q169.66 112.77 170.08 112.53Q170.39 112.42 171.22 112.64Q172.06 112.86 172.94 113.27Q173.83 113.68 174.21 114.15Q174.44 114.44 174.51 114.75Q174.58 115.07 174.36 115.84Q174.13 116.61 173.56 118.32Q173 120.03 171.96 123.13Q170.65 127.16 169.98 129.82Q169.31 132.48 168.93 134.4Q168.55 136.31 168.12 138.04L167.97 139.48L169.4 137.43Q169.96 136.72 170.58 136.06Q171.21 135.41 171.97 134.73Q172.43 134.29 173.24 133.77Q174.04 133.25 174.83 132.83Q175.62 132.42 175.99 132.31Q176.17 132.22 177.26 131.86Q178.34 131.5 179.42 131.37Q180.82 131.2 181.99 132.05Q183.16 132.91 184.15 134.2Q185.02 135.45 185.08 137.54Q185.14 139.63 184.43 141.2Q184.15 141.49 183.88 141.94Q183.61 142.4 183.64 142.65Q183.64 143.1 182.72 144.6Q181.81 146.1 180.88 147.44Q179.88 148.79 178.38 150.16Q176.87 151.54 175.36 152.66Q173.86 153.78 172.76 154.3Q172.26 154.43 171.33 154.7Q170.39 154.98 169.9 155.17Z M190.01 151.99Q189.44 151.54 189.1 150.56Q188.75 149.57 188.69 148.57Q188.63 147.58 188.83 147.04Q188.76 146.53 188.89 146.23Q189.01 145.92 188.92 145.68Q188.82 145.43 188.93 144.77Q189.05 144.11 189.17 143.52Q189.49 142.45 189.86 140.76Q190.23 139.07 190.6 137.31Q190.96 135.56 191.19 134.28Q191.42 132.99 191.45 132.73Q191.36 131.97 192.37 131.78Q193.1 131.43 194.29 132.19Q195.48 132.94 196.24 133.88Q196.81 134.33 196.78 135.17Q196.76 136.01 196.25 137.62Q196.05 138.16 195.85 139.38Q195.64 140.6 195.61 141.37Q195.42 141.91 195.18 142.88Q194.95 143.84 194.79 144.7Q194.7 145.03 194.68 145.9Q194.66 146.78 194.58 147.69Q194.5 148.6 194.24 149.15Q193.99 151.82 192.62 152.44Q191.24 153.07 190.01 151.99ZM193.75 125.68Q192.99 125.25 192.55 124.57Q192.11 123.88 192.01 123.31Q191.9 122.74 192.01 122.6Q192.56 121.82 192.9 120.62Q193.24 119.42 193.69 118.4Q193.79 118.19 193.97 117.81Q194.15 117.44 194.4 117.34Q195.1 116.74 196.54 117.14Q197.97 117.55 198.73 118.49Q199.45 119.62 199.39 120.92Q199.32 122.22 198.35 123.76Q197.55 125.14 196.13 125.67Q194.71 126.2 193.75 125.68Z"/>
<path d="M75.54 64.23 68.01 54.88 71.51 52.07Q72.58 51.2 73.62 50.99Q74.66 50.77 75.57 51.14Q76.49 51.51 77.21 52.41Q77.93 53.3 78.08 54.26Q78.23 55.23 77.78 56.18Q77.33 57.13 76.25 58L73.76 60.01L72.64 58.63L74.91 56.8Q75.55 56.28 75.8 55.78Q76.06 55.28 75.98 54.78Q75.9 54.28 75.5 53.78Q75.09 53.28 74.62 53.08Q74.14 52.89 73.58 53.02Q73.02 53.16 72.38 53.68L70.82 54.94L77.22 62.88ZM80.8 60 75.12 57.58 76.95 56.11 82.68 58.48Z"/><path d="M87.47 55.2 81.2 44.96 87.85 40.89 88.8 42.44 83.98 45.39 85.67 48.15 90.13 45.41 91.07 46.94 86.61 49.67 88.36 52.53 93.2 49.56 94.15 51.11Z"/><path d="M103.7 46.58Q102.43 47.15 101.31 47.17Q100.19 47.2 99.33 46.67Q98.46 46.15 97.93 45.09L99.86 44.22Q100.17 44.78 100.65 45.02Q101.13 45.26 101.73 45.22Q102.32 45.18 102.93 44.91Q103.58 44.62 103.99 44.2Q104.39 43.78 104.51 43.29Q104.63 42.81 104.42 42.34Q104.23 41.91 103.86 41.74Q103.49 41.57 102.95 41.58Q102.42 41.59 101.76 41.71L100.37 41.94Q98.85 42.2 97.75 41.83Q96.66 41.46 96.14 40.3Q95.71 39.33 95.91 38.37Q96.1 37.41 96.83 36.6Q97.55 35.8 98.7 35.28Q99.87 34.76 100.93 34.77Q101.99 34.78 102.81 35.27Q103.62 35.75 104.06 36.66L102.15 37.52Q101.76 36.84 101.03 36.71Q100.3 36.57 99.42 36.96Q98.8 37.24 98.44 37.63Q98.08 38.01 97.98 38.45Q97.89 38.88 98.08 39.3Q98.28 39.76 98.7 39.92Q99.11 40.09 99.62 40.07Q100.13 40.06 100.62 39.97L101.76 39.77Q102.43 39.64 103.12 39.63Q103.8 39.62 104.43 39.78Q105.06 39.95 105.56 40.35Q106.07 40.76 106.39 41.47Q106.82 42.44 106.66 43.39Q106.5 44.34 105.75 45.17Q105.01 45.99 103.7 46.58Z"/><path d="M110.15 32.81 109.63 31.07 118.79 28.34 119.31 30.08 115.77 31.13 118.67 40.9 116.61 41.52 113.7 31.75Z"/><path d="M127.36 38.64 129.69 26.14 132.4 25.73 138.43 36.95 136.1 37.31 133.05 31.47Q132.6 30.56 132.08 29.4Q131.56 28.25 130.92 26.77L131.37 26.7Q131.21 28.31 131.07 29.58Q130.93 30.84 130.78 31.81L129.68 38.29ZM129.32 35.33 129.06 33.62 135.31 32.67 135.57 34.38Z"/><path d="M149.11 36.68Q147.64 36.69 146.54 36.15Q145.44 35.61 144.83 34.63Q144.21 33.66 144.2 32.37L144.14 24.54L146.29 24.52L146.35 32.18Q146.36 32.94 146.7 33.52Q147.04 34.1 147.65 34.43Q148.26 34.76 149.09 34.76Q149.92 34.75 150.53 34.41Q151.13 34.07 151.46 33.48Q151.79 32.89 151.78 32.14L151.72 24.48L153.87 24.46L153.94 32.3Q153.95 33.58 153.35 34.56Q152.75 35.55 151.66 36.11Q150.57 36.67 149.11 36.68Z"/><path d="M160.57 36.92 162.13 25.01 166.58 25.6Q167.95 25.77 168.82 26.37Q169.69 26.97 170.06 27.9Q170.42 28.82 170.28 29.95Q170.13 31.09 169.53 31.87Q168.94 32.64 167.94 32.97Q166.94 33.3 165.56 33.12L162.39 32.71L162.62 30.94L165.51 31.32Q166.32 31.43 166.86 31.26Q167.41 31.1 167.71 30.7Q168.01 30.29 168.1 29.67Q168.18 29.03 167.99 28.54Q167.8 28.06 167.32 27.75Q166.84 27.44 166.02 27.34L164.03 27.08L162.71 37.2ZM167.27 37.79 165.09 32.02 167.42 32.32 169.66 38.1Z"/><path d="M174.58 39.05 181.79 28.58 184.43 29.3 185.38 42.01 183.11 41.39 182.7 34.81Q182.65 33.8 182.65 32.53Q182.64 31.26 182.66 29.65L183.09 29.77Q182.29 31.18 181.65 32.28Q181.01 33.38 180.48 34.2L176.85 39.67ZM177.72 36.83 178.17 35.16 184.27 36.83 183.81 38.5Z"/><path d="M190.86 43.99 195.67 32.99 197.89 33.96 199.05 41.69Q199.12 42.17 199.18 42.76Q199.24 43.35 199.27 44.06Q199.3 44.78 199.27 45.62L199.05 45.52Q199.26 44.87 199.51 44.2Q199.76 43.53 199.99 42.94Q200.23 42.34 200.41 41.94L202.93 36.17L204.93 37.04L200.12 48.04L197.88 47.06L196.84 40.11Q196.75 39.44 196.68 38.81Q196.61 38.17 196.56 37.38Q196.51 36.59 196.44 35.48L196.71 35.6Q196.41 36.42 196.13 37.16Q195.85 37.9 195.63 38.48Q195.41 39.05 195.25 39.4L192.86 44.87Z"/><path d="M210.85 42.21 211.81 40.66 219.94 45.68 218.99 47.22 215.84 45.28 210.49 53.96 208.66 52.83 214.01 44.15Z"/><path d="M218.56 59.47 226.13 50.15 232.18 55.06 231.04 56.47 226.65 52.91 224.62 55.42 228.68 58.72 227.55 60.11 223.49 56.81 221.37 59.42 225.79 63 224.64 64.4Z"/>
<g><path d="M74.49 244.61 75.1 243.8 81.4 241.73Q81.92 241.57 82.49 241.43Q83.06 241.29 83.64 241.17L83.43 241.67Q82.93 241.35 82.45 241Q81.97 240.65 81.5 240.3L79.09 238.48L79.9 237.39L85.23 241.4L84.62 242.21L78.42 244.25Q77.87 244.42 77.28 244.57Q76.68 244.71 76.09 244.85L76.29 244.35Q76.81 244.67 77.3 245.03Q77.79 245.39 78.27 245.75L80.64 247.54L79.82 248.62Z"/><path d="M82.43 250.47 89.88 244.48 91.62 245.56 89.58 254.92 88.08 253.98 89.2 249.16Q89.38 248.42 89.65 247.5Q89.92 246.59 90.27 245.43L90.56 245.61Q89.68 246.46 88.98 247.11Q88.29 247.76 87.73 248.25L83.94 251.4ZM85.17 249.54 85.86 248.44 89.9 250.95 89.21 252.05Z"/><path d="M92.58 256.54 96.68 248.51 101.82 251.13 101.21 252.34 97.5 250.45 96.27 252.87 99.62 254.57 99.01 255.77 95.66 254.06 94.02 257.28Z"/><path d="M101.1 260.72 104.53 252.38 107.65 253.66Q108.61 254.06 109.13 254.66Q109.64 255.26 109.73 256Q109.82 256.74 109.49 257.54Q109.16 258.34 108.58 258.79Q108 259.23 107.21 259.28Q106.42 259.33 105.46 258.93L103.23 258.02L103.74 256.78L105.77 257.61Q106.34 257.85 106.76 257.83Q107.19 257.82 107.49 257.59Q107.78 257.35 107.96 256.91Q108.15 256.46 108.11 256.08Q108.06 255.69 107.77 255.37Q107.48 255.05 106.91 254.82L105.51 254.25L102.6 261.34ZM105.79 262.65 105.32 258.04 106.96 258.71 107.47 263.34Z"/><path d="M110.1 264.31 115.78 256.63 117.75 257.24 118.14 266.81 116.45 266.28 116.31 261.33Q116.3 260.57 116.33 259.62Q116.35 258.67 116.41 257.45L116.73 257.55Q116.09 258.59 115.58 259.4Q115.07 260.21 114.66 260.82L111.79 264.83ZM112.51 262.72 112.9 261.48 117.44 262.88 117.05 264.13Z"/><path d="M128.32 265.67Q127.92 265.6 127.69 265.27Q127.47 264.94 127.54 264.54Q127.62 264.14 127.95 263.92Q128.27 263.7 128.68 263.77Q129.08 263.85 129.3 264.18Q129.53 264.5 129.45 264.9Q129.38 265.3 129.05 265.52Q128.72 265.75 128.32 265.67Z"/><path d="M141.05 270.67 138.77 270.51 138.87 269.11 141.07 269.27Q142.01 269.33 142.67 269.03Q143.33 268.73 143.69 268.06Q144.06 267.39 144.13 266.35Q144.2 265.32 143.93 264.61Q143.66 263.9 143.07 263.52Q142.47 263.13 141.55 263.07L139.26 262.91L139.36 261.51L141.74 261.67Q143.08 261.77 144.01 262.37Q144.93 262.98 145.38 264.02Q145.82 265.07 145.72 266.46Q145.63 267.87 145.04 268.84Q144.45 269.82 143.44 270.29Q142.42 270.77 141.05 270.67ZM140.25 261.57 139.62 270.57 138.01 270.46 138.64 261.46Z"/><path d="M149.15 271.03 149 262.01 154.86 261.91 154.88 263.28 150.64 263.34 150.68 265.78 154.61 265.71 154.63 267.06 150.7 267.12 150.74 269.64 155.01 269.57 155.03 270.93Z"/><path d="M162.02 270.54Q160.98 270.65 160.17 270.4Q159.37 270.15 158.88 269.57Q158.38 268.99 158.26 268.11L159.84 267.95Q159.93 268.42 160.22 268.71Q160.5 268.99 160.93 269.11Q161.36 269.22 161.87 269.17Q162.4 269.12 162.79 268.91Q163.18 268.71 163.38 268.39Q163.58 268.08 163.54 267.69Q163.51 267.34 163.28 267.13Q163.06 266.93 162.67 266.8Q162.29 266.68 161.79 266.61L160.75 266.44Q159.6 266.27 158.91 265.74Q158.22 265.22 158.12 264.27Q158.04 263.48 158.41 262.84Q158.78 262.2 159.49 261.8Q160.2 261.39 161.14 261.3Q162.1 261.21 162.85 261.47Q163.61 261.73 164.07 262.27Q164.54 262.81 164.63 263.56L163.07 263.72Q162.95 263.14 162.47 262.87Q161.98 262.6 161.25 262.67Q160.75 262.72 160.4 262.91Q160.05 263.1 159.88 263.39Q159.71 263.67 159.74 264.01Q159.78 264.39 160.04 264.61Q160.29 264.83 160.66 264.94Q161.03 265.04 161.39 265.1L162.26 265.23Q162.76 265.3 163.26 265.45Q163.75 265.61 164.16 265.87Q164.56 266.14 164.83 266.55Q165.09 266.96 165.15 267.55Q165.23 268.34 164.89 268.98Q164.54 269.62 163.82 270.03Q163.09 270.44 162.02 270.54Z"/><path d="M172.05 268.98 169.8 269.4 169.54 268.03 171.71 267.61Q172.64 267.44 173.2 266.98Q173.75 266.52 173.94 265.78Q174.12 265.04 173.93 264.02Q173.73 263 173.29 262.39Q172.85 261.77 172.18 261.55Q171.5 261.32 170.59 261.5L168.34 261.92L168.08 260.55L170.43 260.1Q171.75 259.85 172.79 260.2Q173.84 260.55 174.54 261.45Q175.24 262.34 175.5 263.72Q175.76 265.1 175.44 266.2Q175.12 267.29 174.26 268Q173.4 268.72 172.05 268.98ZM168.96 260.38 170.64 269.24 169.05 269.54 167.37 260.68Z"/><path d="M179.97 267.26 177.53 258.58 183.17 257 183.54 258.31 179.45 259.45 180.11 261.8 183.9 260.73 184.26 262.03 180.47 263.09 181.16 265.52 185.27 264.36 185.63 265.67Z"/><path d="M194.18 262.69 193.73 261.62 195.41 257.56Q195.65 256.97 195.79 256.53Q195.93 256.09 195.94 255.73Q195.96 255.36 195.81 255.01Q195.64 254.61 195.34 254.41Q195.04 254.2 194.66 254.17Q194.29 254.15 193.89 254.32Q193.47 254.5 193.24 254.79Q193 255.09 192.96 255.47Q192.92 255.85 193.1 256.28L191.68 256.88Q191.35 256.09 191.46 255.36Q191.58 254.62 192.08 254.03Q192.57 253.44 193.4 253.1Q194.23 252.74 194.99 252.79Q195.75 252.84 196.33 253.23Q196.92 253.63 197.21 254.33Q197.4 254.79 197.42 255.31Q197.43 255.82 197.22 256.56Q197 257.3 196.52 258.43L195.69 260.51L195.72 260.57L199.34 259.05L199.87 260.29Z"/><path d="M206.23 257.28Q205.26 257.79 204.32 257.66Q203.38 257.54 202.54 256.81Q201.69 256.09 201.01 254.79Q200.33 253.49 200.22 252.38Q200.1 251.28 200.53 250.43Q200.96 249.58 201.93 249.07Q202.89 248.57 203.84 248.7Q204.78 248.82 205.63 249.55Q206.47 250.28 207.15 251.57Q207.83 252.87 207.95 253.97Q208.07 255.08 207.63 255.92Q207.2 256.77 206.23 257.28ZM205.6 256.08Q206.12 255.8 206.31 255.27Q206.49 254.74 206.34 253.99Q206.19 253.25 205.71 252.33Q205.22 251.4 204.69 250.85Q204.16 250.3 203.62 250.15Q203.08 250 202.55 250.27Q202.03 250.54 201.85 251.08Q201.67 251.61 201.82 252.36Q201.97 253.11 202.45 254.04Q202.93 254.96 203.46 255.5Q203.99 256.05 204.53 256.2Q205.08 256.35 205.6 256.08Z"/><path d="M215.21 252.07Q214.29 252.66 213.34 252.61Q212.4 252.57 211.49 251.92Q210.59 251.27 209.8 250.03Q209.01 248.8 208.81 247.71Q208.6 246.61 208.95 245.73Q209.31 244.85 210.22 244.26Q211.14 243.67 212.1 243.72Q213.05 243.77 213.95 244.42Q214.85 245.07 215.64 246.3Q216.43 247.54 216.64 248.63Q216.86 249.72 216.5 250.6Q216.14 251.47 215.21 252.07ZM214.48 250.92Q214.98 250.6 215.12 250.06Q215.26 249.52 215.04 248.78Q214.83 248.05 214.27 247.18Q213.71 246.3 213.13 245.79Q212.56 245.29 212 245.19Q211.45 245.08 210.95 245.4Q210.46 245.71 210.32 246.26Q210.18 246.81 210.4 247.54Q210.61 248.28 211.17 249.16Q211.73 250.04 212.3 250.54Q212.88 251.04 213.43 251.14Q213.98 251.24 214.48 250.92Z"/><path d="M221.28 247.81 219.73 239.43 219.69 239.38 216.15 242.08 215.33 241 220.22 237.28 221.06 238.39 222.62 246.79Z"/></g>
</g>
</svg>
